HIERARCHY
ROOT Hips
{
	OFFSET 0.000000 83.214638 0.000000
	CHANNELS 6 Xposition Yposition Zposition Xrotation Yrotation Zrotation
	JOINT Pelvis
	{
		OFFSET 0.000000 0.000000 0.000000
		CHANNELS 3 Xrotation Yrotation Zrotation
		JOINT LeftUpLeg
		{
			OFFSET 8.479700 -4.795502 -0.379100
			CHANNELS 3 Xrotation Yrotation Zrotation
			JOINT LeftLeg
			{
				OFFSET 0.024144 -32.555107 0.112900
				CHANNELS 3 Xrotation Yrotation Zrotation
				JOINT LeftFoot
				{
					OFFSET -0.024144 -32.638630 -3.012600
					CHANNELS 3 Xrotation Yrotation Zrotation
					JOINT LeftToeBase
					{
						OFFSET 0.970200 -13.225400 11.864200
						CHANNELS 3 Xrotation Yrotation Zrotation
						End Site
						{
							OFFSET 0.000000 12.319262 0.000000
						}
					}
					JOINT LFootTongue
					{
						OFFSET 1.142400 -1.059800 6.665200
						CHANNELS 3 Xrotation Yrotation Zrotation
						End Site
						{
							OFFSET 0.000000 12.319262 0.000000
						}
					}
				}
				JOINT LeftPantLeg
				{
					OFFSET 0.918482 -16.533964 -2.284700
					CHANNELS 3 Xrotation Yrotation Zrotation
					End Site
					{
						OFFSET 0.350399 24.744368 0.000000
					}
				}
			}
		}
		JOINT RightUpLeg
		{
			OFFSET -8.479700 -4.795502 -0.379100
			CHANNELS 3 Xrotation Yrotation Zrotation
			JOINT RightLeg
			{
				OFFSET -0.023144 -32.555092 0.112900
				CHANNELS 3 Xrotation Yrotation Zrotation
				JOINT RightFoot
				{
					OFFSET 0.023144 -32.638641 -3.012700
					CHANNELS 3 Xrotation Yrotation Zrotation
					JOINT RightToeBase
					{
						OFFSET -0.970200 -13.225400 11.864200
						CHANNELS 3 Xrotation Yrotation Zrotation
						End Site
						{
							OFFSET 0.000000 12.319244 0.000000
						}
					}
					JOINT RFootTongue
					{
						OFFSET -1.142200 -1.059800 6.665200
						CHANNELS 3 Xrotation Yrotation Zrotation
						End Site
						{
							OFFSET 0.000000 12.319243 0.000000
						}
					}
				}
				JOINT RightPantLeg
				{
					OFFSET -0.919482 -16.533978 -2.284800
					CHANNELS 3 Xrotation Yrotation Zrotation
					End Site
					{
						OFFSET -0.350400 24.744419 0.000000
					}
				}
			}
		}
	}
	JOINT Spine
	{
		OFFSET 0.000000 7.722000 1.166200
		CHANNELS 3 Xrotation Yrotation Zrotation
		JOINT Spine1
		{
			OFFSET 0.000000 12.024101 0.248800
			CHANNELS 3 Xrotation Yrotation Zrotation
			JOINT Spine2
			{
				OFFSET 0.000000 11.502998 -0.491200
				CHANNELS 3 Xrotation Yrotation Zrotation
				JOINT Neck
				{
					OFFSET 0.000000 18.430702 -3.123100
					CHANNELS 3 Xrotation Yrotation Zrotation
					JOINT Head
					{
						OFFSET 0.000000 9.051102 1.034000
						CHANNELS 3 Xrotation Yrotation Zrotation
						JOINT HairB
						{
							OFFSET 0.208400 24.786102 24.822300
							CHANNELS 3 Xrotation Yrotation Zrotation
							End Site
							{
								OFFSET 0.000000 32.263779 0.000000
							}
						}
						JOINT HairA
						{
							OFFSET -7.081100 24.428299 23.196600
							CHANNELS 3 Xrotation Yrotation Zrotation
							End Site
							{
								OFFSET 0.000000 32.263779 0.000000
							}
						}
						JOINT Hat
						{
							OFFSET 16.728800 15.048294 -15.439601
							CHANNELS 3 Xrotation Yrotation Zrotation
							End Site
							{
								OFFSET 0.000000 32.263779 0.000000
							}
						}
					}
				}
				JOINT LeftShoulder
				{
					OFFSET 6.197800 13.665199 -4.064700
					CHANNELS 3 Xrotation Yrotation Zrotation
					JOINT LeftArm
					{
						OFFSET 7.778100 -0.187103 -1.709300
						CHANNELS 3 Xrotation Yrotation Zrotation
						JOINT LeftForeArm
						{
							OFFSET 22.049376 0.000000 0.000000
							CHANNELS 3 Xrotation Yrotation Zrotation
							JOINT LeftHand
							{
								OFFSET 23.009392 0.000000 0.000000
								CHANNELS 3 Xrotation Yrotation Zrotation
								JOINT LeftHandThumb1
								{
									OFFSET 3.507191 -2.063065 3.133727
									CHANNELS 3 Xrotation Yrotation Zrotation
									JOINT LeftHandThumb2
									{
										OFFSET 3.101337 -1.790558 1.790558
										CHANNELS 3 Xrotation Yrotation Zrotation
										JOINT LeftHandThumb3
										{
											OFFSET 3.058640 -1.765907 1.765906
											CHANNELS 3 Xrotation Yrotation Zrotation
											End Site
											{
												OFFSET -0.415260 3.926476 -0.049563
											}
										}
									}
								}
								JOINT LeftHandIndex1
								{
									OFFSET 11.334419 -0.901459 3.706815
									CHANNELS 3 Xrotation Yrotation Zrotation
									JOINT LeftHandIndex2
									{
										OFFSET 3.283112 0.000000 0.000000
										CHANNELS 3 Xrotation Yrotation Zrotation
										JOINT LeftHandIndex3
										{
											OFFSET 3.323853 0.000000 0.000000
											CHANNELS 3 Xrotation Yrotation Zrotation
											End Site
											{
												OFFSET -1.135597 3.097809 0.402452
											}
										}
									}
								}
								JOINT LeftHandMiddle1
								{
									OFFSET 11.335861 0.000000 0.000000
									CHANNELS 3 Xrotation Yrotation Zrotation
									JOINT LeftHandMiddle2
									{
										OFFSET 3.410492 0.000000 0.000000
										CHANNELS 3 Xrotation Yrotation Zrotation
										JOINT LeftHandMiddle3
										{
											OFFSET 3.312172 0.000000 0.000000
											CHANNELS 3 Xrotation Yrotation Zrotation
											End Site
											{
												OFFSET -1.150200 3.080154 0.400270
											}
										}
									}
								}
								JOINT LeftHandRing1
								{
									OFFSET 11.514786 -0.013176 -3.003090
									CHANNELS 3 Xrotation Yrotation Zrotation
									JOINT LeftHandRing2
									{
										OFFSET 3.053307 0.000000 0.000000
										CHANNELS 3 Xrotation Yrotation Zrotation
										JOINT LeftHandRing3
										{
											OFFSET 3.295807 0.000000 0.000000
											CHANNELS 3 Xrotation Yrotation Zrotation
											End Site
											{
												OFFSET -1.281006 3.013344 0.375733
											}
										}
									}
								}
								JOINT LeftHandPinky1
								{
									OFFSET 10.518692 -0.960396 -5.730441
									CHANNELS 3 Xrotation Yrotation Zrotation
									JOINT LeftHandPinky2
									{
										OFFSET 2.861649 0.000000 0.000000
										CHANNELS 3 Xrotation Yrotation Zrotation
										JOINT LeftHandPinky3
										{
											OFFSET 2.863380 0.000000 0.000000
											CHANNELS 3 Xrotation Yrotation Zrotation
											End Site
											{
												OFFSET -0.843597 2.711159 0.369971
											}
										}
									}
								}
							}
							JOINT LSleeve
							{
								OFFSET 6.676277 -0.344902 -1.011730
								CHANNELS 3 Xrotation Yrotation Zrotation
								End Site
								{
									OFFSET 0.000000 14.885353 0.000000
								}
							}
						}
					}
				}
				JOINT RightShoulder
				{
					OFFSET -6.197800 13.665199 -4.064700
					CHANNELS 3 Xrotation Yrotation Zrotation
					JOINT RightArm
					{
						OFFSET -7.778100 -0.187103 -1.709300
						CHANNELS 3 Xrotation Yrotation Zrotation
						JOINT RightForeArm
						{
							OFFSET -22.049376 0.000000 0.000000
							CHANNELS 3 Xrotation Yrotation Zrotation
							JOINT RightHand
							{
								OFFSET -23.009392 0.000000 0.000000
								CHANNELS 3 Xrotation Yrotation Zrotation
								JOINT RightHandThumb1
								{
									OFFSET -3.507191 -2.063065 3.133727
									CHANNELS 3 Xrotation Yrotation Zrotation
									JOINT RightHandThumb2
									{
										OFFSET -3.101337 -1.790558 1.790558
										CHANNELS 3 Xrotation Yrotation Zrotation
										JOINT RightHandThumb3
										{
											OFFSET -3.058640 -1.765907 1.765906
											CHANNELS 3 Xrotation Yrotation Zrotation
											End Site
											{
												OFFSET 0.415260 3.926476 -0.049563
											}
										}
									}
								}
								JOINT RightHandIndex1
								{
									OFFSET -11.334419 -0.901459 3.706815
									CHANNELS 3 Xrotation Yrotation Zrotation
									JOINT RightHandIndex2
									{
										OFFSET -3.283112 0.000000 0.000000
										CHANNELS 3 Xrotation Yrotation Zrotation
										JOINT RightHandIndex3
										{
											OFFSET -3.323853 0.000000 0.000000
											CHANNELS 3 Xrotation Yrotation Zrotation
											End Site
											{
												OFFSET 1.135597 3.097809 0.402452
											}
										}
									}
								}
								JOINT RightHandMiddle1
								{
									OFFSET -11.335861 0.000000 0.000000
									CHANNELS 3 Xrotation Yrotation Zrotation
									JOINT RightHandMiddle2
									{
										OFFSET -3.410492 0.000000 0.000000
										CHANNELS 3 Xrotation Yrotation Zrotation
										JOINT RightHandMiddle3
										{
											OFFSET -3.312172 0.000000 0.000000
											CHANNELS 3 Xrotation Yrotation Zrotation
											End Site
											{
												OFFSET 1.150200 3.080154 0.400270
											}
										}
									}
								}
								JOINT RightHandRing1
								{
									OFFSET -11.514786 -0.013176 -3.003090
									CHANNELS 3 Xrotation Yrotation Zrotation
									JOINT RightHandRing2
									{
										OFFSET -3.053307 0.000000 0.000000
										CHANNELS 3 Xrotation Yrotation Zrotation
										JOINT RightHandRing3
										{
											OFFSET -3.295807 0.000000 0.000000
											CHANNELS 3 Xrotation Yrotation Zrotation
											End Site
											{
												OFFSET 1.281006 3.013344 0.375733
											}
										}
									}
								}
								JOINT RightHandPinky1
								{
									OFFSET -10.518692 -0.960396 -5.730441
									CHANNELS 3 Xrotation Yrotation Zrotation
									JOINT RightHandPinky2
									{
										OFFSET -2.861649 0.000000 0.000000
										CHANNELS 3 Xrotation Yrotation Zrotation
										JOINT RightHandPinky3
										{
											OFFSET -2.863380 0.000000 0.000000
											CHANNELS 3 Xrotation Yrotation Zrotation
											End Site
											{
												OFFSET 0.843597 2.711159 0.369971
											}
										}
									}
								}
							}
							JOINT RSleeve
							{
								OFFSET -6.676277 -0.344902 -1.011730
								CHANNELS 3 Xrotation Yrotation Zrotation
								End Site
								{
									OFFSET 0.000000 14.885353 0.000000
								}
							}
						}
					}
				}
				JOINT Backpack
				{
					OFFSET 0.000000 -2.471497 36.677502
					CHANNELS 3 Xrotation Yrotation Zrotation
					End Site
					{
						OFFSET 0.000000 20.427315 0.000000
					}
				}
				JOINT Hood
				{
					OFFSET 0.000000 18.754097 -10.431000
					CHANNELS 3 Xrotation Yrotation Zrotation
					JOINT Hood1
					{
						OFFSET 0.000000 -5.011002 -7.685901
						CHANNELS 3 Xrotation Yrotation Zrotation
						End Site
						{
							OFFSET 0.000000 9.175140 0.000000
						}
					}
				}
				JOINT LHoodieString
				{
					OFFSET 5.250500 16.397697 3.089900
					CHANNELS 3 Xrotation Yrotation Zrotation
					JOINT LHoodieString1
					{
						OFFSET 0.257700 -6.364304 3.694600
						CHANNELS 3 Xrotation Yrotation Zrotation
						JOINT LHoodieString2
						{
							OFFSET 0.000000 -9.643799 2.679100
							CHANNELS 3 Xrotation Yrotation Zrotation
							End Site
							{
								OFFSET 0.000000 10.009018 0.000000
							}
						}
					}
				}
				JOINT RHoodieString
				{
					OFFSET -5.250500 16.397697 3.089900
					CHANNELS 3 Xrotation Yrotation Zrotation
					JOINT RHoodieString1
					{
						OFFSET -0.257700 -6.364304 3.694600
						CHANNELS 3 Xrotation Yrotation Zrotation
						JOINT RHoodieString2
						{
							OFFSET 0.000000 -9.643799 2.679100
							CHANNELS 3 Xrotation Yrotation Zrotation
							End Site
							{
								OFFSET 0.000000 10.009018 0.000000
							}
						}
					}
				}
			}
			JOINT LBackpack_Strap
			{
				OFFSET 15.223200 -7.719803 -6.610900
				CHANNELS 3 Xrotation Yrotation Zrotation
				End Site
				{
					OFFSET 0.000000 16.040596 0.000000
				}
			}
			JOINT RBackpack_Strap
			{
				OFFSET -15.223000 -7.719803 -6.610900
				CHANNELS 3 Xrotation Yrotation Zrotation
				End Site
				{
					OFFSET 0.000000 16.040596 0.000000
				}
			}
		}
	}
	JOINT BoyFacialAnim_Joint
	{
		OFFSET 1.000000 -82.208099 -1.550900
		CHANNELS 3 Xrotation Yrotation Zrotation
		End Site
		{
			OFFSET 0.000000 30.012791 0.000000
		}
	}
}
MOTION
Frames: 5
Frame Time: 0.033333
0.018742 82.451080 0.245933 -3.753368 -5.223268 -3.509056 -0.000000 0.000000 -0.000000 -11.805693 14.473488 10.860933 13.106584 1.994500 4.181283 1.432923 0.537744 -7.636211 0.000000 0.000001 0.000000 0.000000 0.000001 0.000000 -0.000000 -0.000001 0.000000 1.330214 -10.341446 3.344995 5.908671 -9.742534 -3.276101 -2.956035 -1.624100 3.119923 0.000000 0.000000 -0.000000 0.000000 0.000000 -0.000000 -0.000000 0.000002 0.000000 3.296799 1.542441 2.483925 1.151811 0.351195 1.562093 1.125926 0.367745 1.565434 5.626310 -0.080847 0.454682 -7.563296 1.369434 -0.080835 -0.000000 -0.000000 0.000000 -0.000000 -0.000000 0.000000 -0.000000 -0.000000 0.000000 1.049423 -17.442071 -12.319517 3.916258 -19.989249 -69.765246 -0.000005 -1.475148 0.000012 -33.230014 -1.362835 -6.185332 -0.663003 2.160309 4.832519 11.853371 25.421585 17.058949 0.000000 -0.000001 0.000001 0.018877 -0.976949 -7.594313 0.267874 1.752895 -17.375728 -0.000003 -0.000000 -0.000002 -0.076314 2.665781 -15.696827 0.268786 1.755800 -17.405482 0.000001 -0.000001 -0.000002 0.136912 3.641770 -21.133555 0.386622 2.094791 -20.911886 -0.000002 0.000000 0.000003 0.921552 5.559073 -27.127510 0.268790 1.755841 -17.405880 0.000001 0.000001 -0.000000 0.000001 -0.000000 0.000001 1.194960 15.341573 14.706012 13.158861 27.555129 58.785164 -0.000001 6.693723 -0.000009 -20.178872 -0.515574 6.782756 -1.666569 -0.174961 -4.215458 12.716691 -29.825452 -16.120643 0.000000 0.000001 -0.000003 0.033465 1.261712 6.823463 0.213722 -1.396034 17.407039 -0.000002 0.000000 0.000002 -0.136234 -2.205111 14.998880 0.214456 -1.398352 17.436863 0.000000 0.000001 -0.000002 0.030612 -3.075758 20.451048 0.308437 -1.668274 20.948515 -0.000003 0.000001 0.000004 0.743493 -4.887922 26.473354 0.214456 -1.398381 17.437242 0.000001 -0.000001 0.000000 -0.000002 0.000000 -0.000001 0.000000 0.000000 -0.000000 0.000000 0.000000 -0.000000 0.000000 0.000000 -0.000000 0.000000 0.000000 -0.000000 0.000000 0.000000 -0.000000 0.000000 0.000000 -0.000000 0.000000 0.000000 -0.000000 0.000000 0.000000 -0.000000 0.000000 0.000000 -0.000000 0.000000 0.000000 -0.000000 0.000000 0.000000 -0.000000 -0.000000 0.000000 -0.000000 
0.015800 82.449127 0.256025 -3.733904 -5.191726 -3.482697 -0.000000 0.000000 0.000000 -11.807433 14.461187 10.830809 13.109695 1.991550 4.181387 1.431649 0.538007 -7.614473 0.000000 0.000000 -0.000000 0.000000 0.000000 0.000000 -0.000000 -0.000001 -0.000000 1.281239 -10.345238 3.313352 5.985245 -9.785342 -3.275988 -3.005512 -1.626022 3.134675 0.000000 -0.000000 -0.000000 0.000000 -0.000000 -0.000000 0.000000 -0.000002 -0.000000 3.296821 1.542464 2.483148 1.151811 0.351194 1.562093 1.125926 0.367745 1.565434 5.601480 -0.080847 0.454684 -7.534346 1.369019 -0.056907 -0.000000 0.000000 -0.000000 -0.000000 0.000000 -0.000000 -0.000000 0.000000 -0.000000 1.047626 -17.407384 -12.317313 3.928750 -20.070849 -69.717674 -0.000006 -1.475145 -0.000005 -33.227463 -1.347592 -6.209427 -0.663003 2.160313 4.832506 11.853361 25.421587 17.058969 0.000000 -0.000000 -0.000000 0.028334 -0.977581 -7.600717 0.267868 1.752897 -17.375708 -0.000002 0.000000 -0.000002 -0.078564 2.657759 -15.697603 0.268783 1.755806 -17.405479 0.000000 -0.000000 -0.000003 0.137330 3.643672 -21.152336 0.386429 2.094283 -20.906632 -0.000001 0.000000 -0.000000 0.921553 5.559064 -27.127508 0.268793 1.755844 -17.405856 -0.000001 -0.000001 -0.000000 0.000003 0.000000 0.000000 1.207637 15.316404 14.681698 13.163020 27.581526 58.742243 0.000000 6.693745 0.000005 -20.166926 -0.513654 6.783357 -1.667393 -0.163569 -4.213224 12.716689 -29.825459 -16.120665 0.000003 0.000004 0.000003 0.031108 1.258609 6.861448 0.213716 -1.396032 17.407051 -0.000004 0.000001 0.000002 -0.136228 -2.205113 14.998880 0.214161 -1.397403 17.424755 0.000000 0.000001 0.000002 0.025929 -3.064491 20.479812 0.309453 -1.670915 20.983203 -0.000002 0.000001 0.000001 0.750675 -4.901766 26.495559 0.216130 -1.403698 17.505705 -0.000001 -0.000001 0.000000 0.000004 -0.000000 -0.000001 0.000000 -0.000000 0.000000 0.000000 -0.000000 0.000000 0.000000 -0.000000 0.000000 0.000000 -0.000000 0.000000 0.000000 -0.000000 0.000000 -0.000000 -0.000000 0.000000 0.000000 -0.000000 0.000000 0.000000 -0.000000 0.000000 -0.000000 -0.000000 0.000000 -0.000000 0.000000 -0.000000 -0.000000 0.000000 -0.000000 -0.000000 0.000000 0.000000 
0.013710 82.446793 0.271628 -3.713915 -5.155650 -3.452641 -0.000000 -0.000000 -0.000000 -11.813733 14.450355 10.797908 13.117181 1.973093 4.181432 1.418852 0.538055 -7.620839 0.000000 0.000000 -0.000000 0.000000 0.000000 -0.000000 0.000000 -0.000000 0.000001 1.232805 -10.356261 3.274865 6.070017 -9.825155 -3.275864 -3.063681 -1.627464 3.154199 0.000000 0.000002 0.000000 0.000000 0.000002 0.000000 0.000000 -0.000003 0.000000 3.293191 1.542487 2.486477 1.147204 0.351194 1.569814 1.121394 0.367745 1.573905 5.560402 -0.080847 0.466518 -7.484740 1.371223 -0.029927 -0.000000 0.000000 0.000000 -0.000000 0.000000 0.000000 -0.000000 0.000000 0.000000 1.046504 -17.367655 -12.314771 3.926473 -20.121573 -69.676283 0.000012 -1.474161 -0.000005 -33.204985 -1.331980 -6.239634 -0.676326 2.129179 4.847254 11.853368 25.421587 17.058952 0.000000 -0.000000 -0.000001 0.041221 -0.980075 -7.592294 0.267875 1.752895 -17.375735 -0.000001 -0.000001 -0.000004 -0.080463 2.651626 -15.705188 0.268620 1.755270 -17.400062 0.000003 -0.000000 -0.000003 0.135513 3.639136 -21.156173 0.386099 2.093425 -20.897585 -0.000001 0.000000 0.000001 0.915328 5.547250 -27.115241 0.268792 1.755843 -17.405863 -0.000000 0.000002 0.000003 0.000001 -0.000000 -0.000000 1.210612 15.283634 14.665902 13.166436 27.600321 58.695367 -0.000008 6.693740 0.000001 -20.161339 -0.500263 6.784659 -1.668581 -0.146886 -4.209971 12.716690 -29.825452 -16.120628 -0.000002 0.000005 0.000005 0.026417 1.266379 6.914653 0.213723 -1.396036 17.407039 0.000001 0.000001 0.000002 -0.138262 -2.198405 15.009315 0.213719 -1.396041 17.407178 -0.000001 0.000001 -0.000000 0.025795 -3.064889 20.496925 0.309866 -1.671993 20.997465 -0.000003 0.000000 0.000004 0.759849 -4.919737 26.510179 0.215330 -1.401157 17.473072 0.000001 -0.000001 0.000000 0.000002 0.000000 -0.000001 0.000000 0.000000 -0.000000 0.000000 0.000000 -0.000000 0.000000 0.000000 -0.000000 0.000000 0.000000 -0.000000 0.000000 0.000000 -0.000000 0.000000 0.000000 0.000000 0.000000 0.000000 -0.000000 0.000000 0.000000 -0.000000 0.000000 0.000000 0.000000 0.000000 0.000000 -0.000000 0.000000 0.000000 -0.000000 -0.000000 -0.000000 -0.000000 
0.010876 82.445290 0.293213 -3.686835 -5.112028 -3.423902 0.000000 0.000000 0.000000 -11.831374 14.444394 10.769906 13.130790 1.934911 4.181223 1.400765 0.537707 -7.655397 -0.000000 0.000001 -0.000000 -0.000000 0.000001 -0.000000 -0.000000 -0.000000 0.000000 1.196246 -10.364312 3.243790 6.127698 -9.878395 -3.280217 -3.113420 -1.627841 3.176037 0.000000 -0.000000 0.000000 0.000000 -0.000000 0.000000 0.000000 -0.000003 0.000000 3.284935 1.542510 2.490915 1.136701 0.351195 1.578049 1.110916 0.373541 1.582582 5.489911 -0.077451 0.488591 -7.472957 1.403871 0.008599 -0.000000 0.000000 0.000000 -0.000000 0.000000 0.000000 -0.000000 0.000000 0.000000 1.047368 -17.330775 -12.303884 3.905640 -20.135241 -69.648785 -0.000003 -1.472645 0.000002 -33.171278 -1.322101 -6.264255 -0.714712 2.029761 4.874092 11.845260 25.402700 17.060324 -0.000002 -0.000001 -0.000002 0.032265 -0.984714 -7.574408 0.267870 1.752895 -17.375708 -0.000003 -0.000001 -0.000000 -0.079869 2.651383 -15.677960 0.268330 1.754350 -17.390604 -0.000001 -0.000000 -0.000002 0.129346 3.620043 -21.085451 0.386215 2.093732 -20.900886 -0.000001 -0.000000 -0.000002 0.904311 5.526981 -27.059983 0.268913 1.756235 -17.409934 -0.000001 0.000002 -0.000002 0.000003 -0.000000 0.000000 1.212504 15.249009 14.655590 13.162220 27.602811 58.653703 -0.000001 6.693739 0.000015 -20.156566 -0.477532 6.775572 -1.669105 -0.143903 -4.202544 12.716223 -29.828686 -16.121256 0.000000 0.000003 0.000002 0.023061 1.292314 6.918574 0.213618 -1.395671 17.402432 0.000001 0.000001 -0.000002 -0.139748 -2.193111 15.012112 0.213686 -1.395894 17.405216 -0.000003 0.000000 0.000002 0.033896 -3.084741 20.453958 0.308534 -1.668515 20.951626 -0.000000 -0.000000 -0.000001 0.756585 -4.914102 26.472770 0.211465 -1.388822 17.314142 -0.000002 0.000001 -0.000001 -0.000000 0.000000 0.000000 -0.000000 0.000000 0.000000 -0.000000 0.000000 0.000000 -0.000000 0.000000 0.000000 -0.000000 0.000000 0.000000 -0.000000 0.000000 -0.000000 -0.000000 0.000000 0.000000 -0.000000 0.000000 0.000000 -0.000000 0.000000 -0.000000 -0.000000 0.000000 0.000000 -0.000000 -0.000000 0.000000 -0.000000 -0.000000 0.000000 0.000000 0.000000 0.000000 
0.006871 82.445259 0.320131 -3.651206 -5.060657 -3.398279 0.000000 0.000000 0.000000 -11.858062 14.439300 10.751467 13.145185 1.888202 4.179391 1.385483 0.537282 -7.687637 -0.000000 -0.000000 0.000000 -0.000000 -0.000000 0.000000 -0.000000 -0.000001 -0.000001 1.177921 -10.367338 3.226154 6.141812 -9.936937 -3.291293 -3.146225 -1.628393 3.197853 -0.000000 -0.000000 -0.000000 -0.000000 -0.000000 -0.000000 0.000000 0.000000 0.000000 3.281326 1.544181 2.496769 1.129750 0.356999 1.587919 1.103944 0.379650 1.592302 5.377993 -0.061926 0.528418 -7.592204 1.495851 0.084784 -0.000000 0.000000 -0.000000 -0.000000 0.000000 -0.000000 -0.000000 0.000000 -0.000000 1.048366 -17.295381 -12.292587 3.879910 -20.142662 -69.621136 0.000002 -1.473514 -0.000008 -33.158676 -1.336251 -6.265557 -0.763937 1.905645 4.892053 11.815880 25.345439 17.067982 0.000001 -0.000001 -0.000001 0.019474 -0.986970 -7.587307 0.267869 1.752897 -17.375730 0.000002 -0.000000 -0.000002 -0.083692 2.630370 -15.594864 0.268255 1.754116 -17.388222 0.000003 -0.000001 -0.000002 0.125098 3.605500 -21.006715 0.386544 2.094598 -20.909890 0.000001 -0.000001 -0.000000 0.889003 5.506267 -26.993522 0.269445 1.757922 -17.427135 -0.000002 0.000002 0.000004 0.000000 0.000000 -0.000000 1.213002 15.215981 14.651842 13.154458 27.596717 58.610946 -0.000002 6.697939 -0.000016 -20.148266 -0.455427 6.756747 -1.670097 -0.139651 -4.186010 12.713706 -29.845881 -16.124478 0.000002 0.000002 0.000002 0.019893 1.290584 6.962932 0.214421 -1.398273 17.436011 -0.000003 -0.000000 0.000002 -0.134935 -2.208456 14.982252 0.213950 -1.396743 17.416282 -0.000000 0.000001 -0.000002 0.028352 -3.070193 20.462422 0.309495 -1.671035 20.984769 -0.000000 0.000001 -0.000001 0.753219 -4.907848 26.451265 0.215343 -1.401208 17.473579 0.000002 0.000001 -0.000003 -0.000002 -0.000000 -0.000000 0.000000 -0.000000 0.000000 0.000000 -0.000000 0.000000 0.000000 -0.000000 0.000000 0.000000 -0.000000 0.000000 0.000000 -0.000000 0.000000 0.000000 0.000000 0.000000 0.000000 -0.000000 0.000000 0.000000 -0.000000 0.000000 0.000000 0.000000 0.000000 -0.000000 0.000000 -0.000000 -0.000000 0.000000 -0.000000 0.000000 0.000000 0.000000 
